<?xml version="1.0" encoding="UTF-8" standalone="no"?>
<svg width="44px" height="41px" viewBox="0 0 44 41" version="1.1" xmlns="http://www.w3.org/2000/svg" xmlns:xlink="http://www.w3.org/1999/xlink" xmlns:sketch="http://www.bohemiancoding.com/sketch/ns">
    <!-- Generator: Sketch 3.2.2 (9983) - http://www.bohemiancoding.com/sketch -->
    <title>Shape</title>
    <desc>Created with Sketch.</desc>
    <defs></defs>
    <g id="Page-1" stroke="none" stroke-width="1" fill="none" fill-rule="evenodd" sketch:type="MSPage">
        <g id="Web" sketch:type="MSArtboardGroup" transform="translate(-2110.000000, -399.000000)" fill="#76767F">
            <g id="Main-Player-+-Player-4-+-via-Daniel-Rakhamimo-+-Login-Avatar-2" sketch:type="MSLayerGroup" transform="translate(696.000000, 200.000000)">
                <g transform="translate(0.000000, 1.000000)" id="Main-Player" sketch:type="MSShapeGroup">
                    <g>
                        <g id="Tell-Me-I’m-The-Only-+-Kanye-West--vs-Sam-S-+-Song-Track-+-Song-Track" transform="translate(32.000000, 10.000000)">
                            <g id="Song-Track" transform="translate(0.000000, 188.000000)">
                                <path d="M1382.8,24.6000061 C1382.2,23.4000061 1382,22.0000061 1382,20.6000061 C1382,14.0000061 1387.4,8.6000061 1394,8.6000061 L1414,8.6000061 L1414,0.600006104 L1426,10.6000061 L1414,20.6000061 L1414,12.6000061 L1394,12.6000061 C1389.6,12.6000061 1386,16.2000061 1386,20.6000061 C1386,21.0000061 1386,21.4000061 1386.2,21.8000061 L1382.8,24.6000061 L1382.8,24.6000061 Z M1421.8,19.4000061 C1421.8,19.8000061 1422,20.4000061 1422,20.8000061 C1422,25.2000061 1418.4,28.8000061 1414,28.8000061 L1394,28.8000061 L1394,20.6000061 L1382,30.6000061 L1394,40.6000061 L1394,32.6000061 L1414,32.6000061 C1420.6,32.6000061 1426,27.2000061 1426,20.6000061 C1426,19.2000061 1425.8,17.8000061 1425.2,16.6000061 L1421.8,19.4000061 L1421.8,19.4000061 Z" id="Shape"></path>
                            </g>
                        </g>
                    </g>
                </g>
            </g>
        </g>
    </g>
</svg>